<svg width="23px" height="23px" viewBox="0 0 23 23" version="1.1" xmlns="http://www.w3.org/2000/svg" xmlns:xlink="http://www.w3.org/1999/xlink">
    <!-- Generator: Sketch 52.3 (67297) - http://www.bohemiancoding.com/sketch -->
    <title>Combined Shape</title>
    <desc>Created with Sketch.</desc>
    <g id="Header" stroke="none" stroke-width="1" fill="none" fill-rule="evenodd">
        <g id="ip-mobile-menu-01" transform="translate(-20.000000, -861.000000)" fill="#ffffff">
            <g id="icons" transform="translate(20.000000, 861.000000)">
                <path d="M0.00732527146,11.493121 C0.00732527146,9.85474148 -0.0120180235,8.21571013 0.0121610952,6.57798244 C0.0405312611,4.69646961 0.755910786,3.10404423 2.10284889,1.80885421 C2.9475061,0.996671644 3.94594251,0.459888061 5.07945959,0.182859496 C5.58786586,0.0586855156 6.10465423,0.00197613878 6.62789036,0.00197613878 C9.84113403,0.00262797069 13.0540553,-0.00551992827 16.2669766,0.00719079412 C17.6032759,0.0124054495 18.8270617,0.423385473 19.9186683,1.20265053 C21.3503945,2.22472298 22.2514697,3.6098658 22.621249,5.34341278 C22.7095834,5.7563483 22.7531058,6.17580214 22.7531058,6.59851514 C22.7543954,9.86810404 22.7627774,13.1380189 22.7498819,16.4076077 C22.7440789,17.9240947 22.2485682,19.280231 21.3178333,20.4691724 C20.5882687,21.401618 19.6713965,22.0860415 18.5801123,22.5286354 C17.985306,22.7698132 17.3679325,22.9200604 16.728959,22.9702515 C16.50232,22.9881769 16.2747139,22.9973025 16.0477526,22.9976284 C12.9057567,22.999258 9.76376085,23.0021913 6.62176498,22.9973025 C5.04302972,22.9950211 3.63516024,22.4862663 2.4181446,21.471364 C1.21950509,20.4721057 0.461570314,19.1941892 0.139182065,17.6561918 C0.0456894731,17.2100128 0.00603571846,16.7573156 0.00635810671,16.3007073 C0.00700288321,14.6981785 0.00668049496,13.0956498 0.00668049496,11.493121 L0.00732527146,11.493121 Z M6.06852633,11.8367584 C6.06970002,14.8080677 8.43624579,17.2004581 11.3759424,17.2020399 C14.3175952,17.204017 16.6907919,14.8052997 16.6884445,11.8331995 C16.6860971,8.85951759 14.3222899,6.47029071 11.3810284,6.46870897 C8.43663702,6.46673178 6.06735264,8.86109934 6.06852633,11.8367584 Z M17.6273814,3.35838476 C18.3363407,3.36054929 18.912944,3.92611075 18.9123107,4.6187612 C18.9113608,5.31264852 18.3284247,5.87913764 17.6175655,5.87697311 C16.9070231,5.87419014 16.3278866,5.30337195 16.3326362,4.60886619 C16.3370692,3.91652496 16.9174722,3.35622023 17.6273814,3.35838476" id="Combined-Shape"></path>
            </g>
        </g>
    </g>
</svg>