<?xml version="1.0" encoding="UTF-8"?>
<svg width="16px" height="19px" viewBox="0 0 16 19" version="1.1" xmlns="http://www.w3.org/2000/svg" xmlns:xlink="http://www.w3.org/1999/xlink">
    <title>Path</title>
    <g id="Footer" stroke="none" stroke-width="1" fill="none" fill-rule="evenodd">
        <g id="IP-Desktop-Footer" transform="translate(-789.000000, -376.000000)" fill="#FFFFFF" fill-rule="nonzero">
            <g id="Bottom" transform="translate(510.000000, 376.000000)">
                <g id="icons" transform="translate(117.000000, -0.000000)">
                    <path d="M164.782157,13.1039035 C164.781881,13.8780841 165.087247,14.6206512 165.631049,15.1681777 C166.17485,15.7157041 166.91252,16.0233177 167.681709,16.0233177 C169.29808,16.0476799 170.637008,14.7665143 170.6945,13.1405007 L170.727745,1.77635684e-15 L173.406013,1.77635684e-15 C173.65704,2.41681175 175.592185,4.30549428 178,4.48368482 L178,7.615363 L178,7.615363 C177.847283,7.6300019 177.693526,7.63836698 177.53977,7.63836698 C175.855973,7.63954339 174.285296,6.78540174 173.363418,5.36724678 L173.363418,13.1049491 C173.363418,16.2632338 170.81963,18.8235294 167.681709,18.8235294 C164.543788,18.8235294 162,16.2632338 162,13.1049491 C162,9.94666444 164.543788,7.38636883 167.681709,7.38636883 C167.800143,7.38636883 167.916499,7.39682519 168.032855,7.40414464 L168.032855,10.2273604 C167.916594,10.2086354 167.799346,10.1967646 167.681709,10.1918088 C166.082762,10.191805 164.785594,11.4945837 164.782157,13.1039035 Z" id="Path"></path>
                </g>
            </g>
        </g>
    </g>
</svg>