<svg width="32px" height="23px" viewBox="0 0 32 23" version="1.1" xmlns="http://www.w3.org/2000/svg" xmlns:xlink="http://www.w3.org/1999/xlink">
    <!-- Generator: Sketch 52.3 (67297) - http://www.bohemiancoding.com/sketch -->
    <title>Combined Shape</title>
    <desc>Created with Sketch.</desc>
    <g id="Header" stroke="none" stroke-width="1" fill="none" fill-rule="evenodd">
        <g id="ip-mobile-menu-01" transform="translate(-190.000000, -861.000000)" fill="#ffffff">
            <g id="icons" transform="translate(20.000000, 861.000000)">
                <path d="M201.346093,4.37267567 C202,6.80854433 202,11.891 202,11.891 C202,11.891 202,16.9732793 201.346093,19.4093243 C200.986248,20.753337 199.925915,21.8116897 198.579698,22.171057 C196.139546,22.8236667 186.354582,22.8236667 186.354582,22.8236667 C186.354582,22.8236667 176.569617,22.8236667 174.129465,22.171057 C172.783248,21.8116897 171.722915,20.753337 171.363071,19.4093243 C170.709163,16.9732793 170.709163,11.891 170.709163,11.891 C170.709163,11.891 170.709163,6.80854433 171.363071,4.37267567 C171.722915,3.028663 172.783248,1.97031033 174.129465,1.61111933 C176.569617,0.958333333 186.354582,0.958333333 186.354582,0.958333333 C186.354582,0.958333333 196.139546,0.958333333 198.579698,1.61111933 C199.925915,1.97031033 200.986248,3.028663 201.346093,4.37267567 Z M182.709163,16.1872673 L190.88745,11.5729767 L182.709163,6.95833333 L182.709163,16.1872673 Z" id="Combined-Shape"></path>
            </g>
        </g>
    </g>
</svg>