<svg width="11px" height="23px" viewBox="0 0 11 23" version="1.1" xmlns="http://www.w3.org/2000/svg" xmlns:xlink="http://www.w3.org/1999/xlink">
    <!-- Generator: Sketch 52.3 (67297) - http://www.bohemiancoding.com/sketch -->
    <title>facebook</title>
    <desc>Created with Sketch.</desc>
    <g id="Header" stroke="none" stroke-width="1" fill="none" fill-rule="evenodd">
        <g id="ip-mobile-menu-01" transform="translate(-142.000000, -861.000000)" fill="#4368e8">
            <g id="icons" transform="translate(20.000000, 861.000000)">
                <path d="M132.424814,4.54747351e-13 C132.420868,0.0728570457 132.413278,0.146026783 132.413278,0.21919652 C132.412671,1.40054381 132.409939,2.5818911 132.416921,3.76323839 C132.417832,3.92771396 132.369866,3.9686765 132.215341,3.96742574 C131.591475,3.96054653 130.967305,3.96117191 130.343438,3.97367956 C130.131233,3.97743185 129.917509,4.01151519 129.708339,4.05185236 C129.314894,4.1284617 129.028006,4.45710013 129.011309,4.91331657 C128.980647,5.74507511 128.98429,6.57777174 128.970021,7.40984297 C128.967289,7.5614982 129.065954,7.53585752 129.151261,7.53585752 C130.167359,7.5364829 131.18376,7.53617021 132.199858,7.53617021 L132.430279,7.53617021 C132.293666,8.87229964 132.160089,10.1771599 132.025297,11.4960914 L128.974575,11.4960914 L128.974575,11.7437428 C128.973361,15.4284957 128.972147,19.1132486 128.970629,22.7983142 C128.970629,22.8655428 128.966682,22.9327714 128.964861,23 L124.791179,23 C124.792697,22.6569778 124.795126,22.3142682 124.795126,21.971246 C124.795429,18.579172 124.795429,15.1867854 124.795429,11.7943987 L124.795429,11.5017198 L122.014291,11.5017198 C122.009737,11.4210455 122.003665,11.3616342 122.003665,11.3025355 C122.003058,10.1146217 122.006398,8.92639521 122.000022,7.7387941 C121.998808,7.57431854 122.046774,7.53273061 122.201906,7.53398137 C122.998512,7.54148596 123.795118,7.53179254 124.591724,7.54086058 C124.761428,7.54273673 124.797555,7.48457617 124.798465,7.32072599 C124.803019,6.25569982 124.797858,5.18973557 124.835199,4.12564747 C124.861915,3.35111141 125.019171,2.59721297 125.36799,1.8974101 C125.75081,1.12944055 126.345836,0.605995514 127.13637,0.347399905 C127.574747,0.203874652 128.03832,0.14258718 128.490358,0.0437767657 C128.553503,0.0300183536 128.616345,0.0146964856 128.679491,4.54747351e-13 L132.424814,4.54747351e-13 Z" id="facebook"></path>
            </g>
        </g>
    </g>
</svg>