<svg width="23px" height="18px" viewBox="0 0 23 18" version="1.1" xmlns="http://www.w3.org/2000/svg" xmlns:xlink="http://www.w3.org/1999/xlink">
    <!-- Generator: Sketch 52.3 (67297) - http://www.bohemiancoding.com/sketch -->
    <title>twitter</title>
    <desc>Created with Sketch.</desc>
    <g id="Header" stroke="none" stroke-width="1" fill="none" fill-rule="evenodd">
        <g id="ip-mobile-menu-01" transform="translate(-81.000000, -863.000000)" fill="#4368e8">
            <g id="icons" transform="translate(20.000000, 861.000000)">
                <path d="M83.7569721,4.06383379 C83.5672536,4.30035408 83.4113337,4.51405224 83.2346883,4.71174526 C82.750667,5.25354863 82.2162667,5.74852217 81.6040658,6.16643395 C81.4876839,6.24586683 81.44145,6.33063476 81.4446385,6.4693459 C81.5119168,9.34700942 80.6092394,11.9499182 78.8144069,14.2807397 C77.3817931,16.1414845 75.5155371,17.5152583 73.226161,18.368569 C71.4408941,19.0336712 69.5771889,19.3030909 67.6564088,19.2414415 C65.9011142,19.1848308 64.2210692,18.8229369 62.6248831,18.1465719 C62.0675252,17.910348 61.5353569,17.6222556 61,17.3323849 C63.5253285,17.5208898 65.796211,16.9429267 67.844533,15.5051323 C65.6973661,15.3323361 64.2644335,14.338536 63.4739929,12.4677138 C64.1977928,12.5717472 64.8648367,12.5634482 65.5736505,12.3847243 C64.4592536,12.1410906 63.5661419,11.6384109 62.879329,10.840229 C62.1931539,10.0426399 61.8491098,9.13064374 61.8513418,8.06659883 C62.5081823,8.37751335 63.173313,8.57253885 63.8983884,8.57846668 C62.7629471,7.7974755 62.0815548,6.76603363 61.9176636,5.46754318 C61.8000062,4.53331767 61.9964206,3.64414365 62.5193422,2.80239225 C65.0510478,5.57039097 68.2529857,7.09117493 72.1615055,7.34696066 C72.1328086,7.08020845 72.0993288,6.8356856 72.0808353,6.58968079 C72.0071799,5.61692441 72.2622636,4.71352361 72.8620291,3.92245512 C73.9502798,2.48762465 75.4571867,1.84356627 77.3412986,2.03207116 C78.3791703,2.13580813 79.2748329,2.55253435 80.0206338,3.23482721 C80.1239427,3.32937605 80.2129032,3.35664405 80.3634025,3.32493018 C81.2577897,3.13701807 82.1072184,2.84447982 82.9072246,2.42804999 C82.9668504,2.39722529 83.0280705,2.36995728 83.1275531,2.32223828 C82.9684447,2.84270147 82.6983748,3.27009778 82.3686792,3.666373 C82.0386646,4.06294462 81.6375455,4.39075344 81.1834966,4.66343347 C81.1895548,4.68121695 81.1959319,4.69929682 81.202309,4.7170803 C81.6279799,4.63290516 82.0587525,4.56680989 82.4777274,4.46010901 C82.895427,4.35400091 83.30101,4.20699081 83.7569721,4.06383379" id="twitter"></path>
            </g>
        </g>
    </g>
</svg>